{
	"buffers":[{
		"uri":"data:application/octet-stream;base64,",
		"byteLength":52632
	},
	{
		"uri":"data:application/octet-stream;base64,",
		"byteLength":52632
	},
	{
		"uri":"data:application/octet-stream;base64,",
		"byteLength":52632
	},
	{
		"uri":"data:application/octet-stream;base64,",
		"byteLength":52632
	},
	{
		"uri":"data:application/octet-stream;base64,",
		"byteLength":52632
	},
	{
		"uri":"data:application/octet-stream;base64,",
		"byteLength":52632
	},
	{
		"uri":"data:application/octet-stream;base64,",
		"byteLength":52632
	},
	{
		"uri":"data:application/octet-stream;base64,",
		"byteLength":52632
	},
	{
		"uri":"data:application/octet-stream;base64,",
		"byteLength":52632
	},
	{
		"uri":"data:application/octet-stream;base64,",
		"byteLength":52632
	}],
	"asset":{
		"version":"2.0",
		"generator":"Maxon Cinema 4D 2025.3.1 (#200000219)"
	},
	"scenes":[{
		"nodes":[0]
	}],
	"nodes":[{
		"name":"环",
		"translation":[0.0,
		2.224604368209839,
		0.0],
		"rotation":[0.0,
		0.0,
		0.0,
		-1.0],
		"scale":[1.0,
		1.0,
		1.0],
		"children":[1,
		2,
		3]
	},
	{
		"name":"外",
		"children":[4,
		5,
		6,
		7,
		8,
		9]
	},
	{
		"name":"中",
		"children":[10,
		11,
		12]
	},
	{
		"name":"内",
		"translation":[0.0,
		0.0,
		0.0],
		"rotation":[0.0,
		-0.51334547996521,
		0.0,
		-0.8581820130348206],
		"scale":[1.0,
		1.0,
		1.0],
		"children":[13]
	},
	{
		"name":"管道.5",
		"mesh":0,
		"translation":[0.0,
		0.0,
		0.0],
		"rotation":[0.0,
		-0.8848394155502319,
		0.0,
		-0.4658961594104767],
		"scale":[1.0,
		1.0,
		1.0]
	},
	{
		"name":"管道.4",
		"mesh":1,
		"translation":[0.0,
		0.0,
		0.0],
		"rotation":[0.0,
		-0.5898690819740295,
		0.0,
		-0.8074988722801209],
		"scale":[1.0,
		1.0,
		1.0]
	},
	{
		"name":"管道.10",
		"mesh":2,
		"translation":[0.0,
		0.0,
		0.0],
		"rotation":[0.0,
		-0.17522825300693513,
		0.0,
		-0.9845278263092041],
		"scale":[1.0,
		1.0,
		1.0]
	},
	{
		"name":"管道.9",
		"mesh":3,
		"translation":[0.0,
		0.0,
		0.0],
		"rotation":[0.0,
		-0.2725774645805359,
		0.0,
		0.9621338248252869],
		"scale":[1.0,
		1.0,
		1.0]
	},
	{
		"name":"管道.8",
		"mesh":4,
		"translation":[0.0,
		0.0,
		0.0],
		"rotation":[0.0,
		-0.970698893070221,
		0.0,
		0.2402990460395813],
		"scale":[1.0,
		1.0,
		1.0]
	},
	{
		"name":"管道.7",
		"mesh":5,
		"translation":[0.0,
		0.0,
		0.0],
		"rotation":[0.0,
		-0.932466447353363,
		0.0,
		-0.36125653982162478],
		"scale":[1.0,
		1.0,
		1.0]
	},
	{
		"name":"管道.3",
		"mesh":6,
		"translation":[0.0,
		0.0,
		0.0],
		"rotation":[0.0,
		-0.51334547996521,
		0.0,
		-0.8581820130348206],
		"scale":[1.0,
		1.0,
		1.0]
	},
	{
		"name":"管道.1",
		"mesh":7,
		"translation":[0.0,
		0.0,
		0.0],
		"rotation":[0.0,
		-0.9733835458755493,
		0.0,
		0.229182168841362],
		"scale":[1.0,
		1.0,
		1.0]
	},
	{
		"name":"管道",
		"mesh":8,
		"translation":[0.0,
		0.0,
		0.0],
		"rotation":[0.0,
		-0.9238795042037964,
		0.0,
		-0.3826834261417389],
		"scale":[1.0,
		1.0,
		1.0]
	},
	{
		"name":"管道.6",
		"mesh":9
	}],
	"meshes":[{
		"name":"管道.5",
		"primitives":[{
			"attributes":{
				"POSITION":1,
				"NORMAL":2,
				"TEXCOORD_0":3
			},
			"indices":0
		}]
	},
	{
		"name":"管道.4",
		"primitives":[{
			"attributes":{
				"POSITION":5,
				"NORMAL":6,
				"TEXCOORD_0":7
			},
			"indices":4
		}]
	},
	{
		"name":"管道.10",
		"primitives":[{
			"attributes":{
				"POSITION":9,
				"NORMAL":10,
				"TEXCOORD_0":11
			},
			"indices":8
		}]
	},
	{
		"name":"管道.9",
		"primitives":[{
			"attributes":{
				"POSITION":13,
				"NORMAL":14,
				"TEXCOORD_0":15
			},
			"indices":12
		}]
	},
	{
		"name":"管道.8",
		"primitives":[{
			"attributes":{
				"POSITION":17,
				"NORMAL":18,
				"TEXCOORD_0":19
			},
			"indices":16
		}]
	},
	{
		"name":"管道.7",
		"primitives":[{
			"attributes":{
				"POSITION":21,
				"NORMAL":22,
				"TEXCOORD_0":23
			},
			"indices":20
		}]
	},
	{
		"name":"管道.3",
		"primitives":[{
			"attributes":{
				"POSITION":25,
				"NORMAL":26,
				"TEXCOORD_0":27
			},
			"indices":24
		}]
	},
	{
		"name":"管道.1",
		"primitives":[{
			"attributes":{
				"POSITION":29,
				"NORMAL":30,
				"TEXCOORD_0":31
			},
			"indices":28
		}]
	},
	{
		"name":"管道",
		"primitives":[{
			"attributes":{
				"POSITION":33,
				"NORMAL":34,
				"TEXCOORD_0":35
			},
			"indices":32
		}]
	},
	{
		"name":"管道.6",
		"primitives":[{
			"attributes":{
				"POSITION":37,
				"NORMAL":38,
				"TEXCOORD_0":39
			},
			"indices":36
		}]
	}],
	"accessors":[{
		"bufferView":0,
		"type":"SCALAR",
		"componentType":5123,
		"count":1548,
		"byteOffset":0,
		"min":[0],
		"max":[1547]
	},
	{
		"bufferView":1,
		"type":"VEC3",
		"componentType":5126,
		"count":1548,
		"byteOffset":0,
		"min":[1.026018500328064,
		-0.02500000037252903,
		-2.37007737159729],
		"max":[2.5918242931365969,
		0.02500000037252903,
		-0.5083893537521362]
	},
	{
		"bufferView":1,
		"type":"VEC3",
		"componentType":5126,
		"count":1548,
		"byteOffset":12,
		"min":[-0.9728196859359741,
		-1.0,
		-0.8878969550132752],
		"max":[0.9728196859359741,
		1.0,
		0.9743717908859253]
	},
	{
		"bufferView":1,
		"type":"VEC2",
		"componentType":5126,
		"count":1548,
		"byteOffset":24,
		"min":[0.0,
		0.0],
		"max":[1.0,
		1.0]
	},
	{
		"bufferView":2,
		"type":"SCALAR",
		"componentType":5123,
		"count":1548,
		"byteOffset":0,
		"min":[0],
		"max":[1547]
	},
	{
		"bufferView":3,
		"type":"VEC3",
		"componentType":5126,
		"count":1548,
		"byteOffset":0,
		"min":[1.026018500328064,
		-0.02500000037252903,
		-2.37007737159729],
		"max":[2.5918242931365969,
		0.02500000037252903,
		-0.5083893537521362]
	},
	{
		"bufferView":3,
		"type":"VEC3",
		"componentType":5126,
		"count":1548,
		"byteOffset":12,
		"min":[-0.9728196859359741,
		-1.0,
		-0.8878969550132752],
		"max":[0.9728196859359741,
		1.0,
		0.9743717908859253]
	},
	{
		"bufferView":3,
		"type":"VEC2",
		"componentType":5126,
		"count":1548,
		"byteOffset":24,
		"min":[0.0,
		0.0],
		"max":[1.0,
		1.0]
	},
	{
		"bufferView":4,
		"type":"SCALAR",
		"componentType":5123,
		"count":1548,
		"byteOffset":0,
		"min":[0],
		"max":[1547]
	},
	{
		"bufferView":5,
		"type":"VEC3",
		"componentType":5126,
		"count":1548,
		"byteOffset":0,
		"min":[1.026018500328064,
		-0.02500000037252903,
		-2.37007737159729],
		"max":[2.5918242931365969,
		0.02500000037252903,
		-0.5083893537521362]
	},
	{
		"bufferView":5,
		"type":"VEC3",
		"componentType":5126,
		"count":1548,
		"byteOffset":12,
		"min":[-0.9728196859359741,
		-1.0,
		-0.8878969550132752],
		"max":[0.9728196859359741,
		1.0,
		0.9743717908859253]
	},
	{
		"bufferView":5,
		"type":"VEC2",
		"componentType":5126,
		"count":1548,
		"byteOffset":24,
		"min":[0.0,
		0.0],
		"max":[1.0,
		1.0]
	},
	{
		"bufferView":6,
		"type":"SCALAR",
		"componentType":5123,
		"count":1548,
		"byteOffset":0,
		"min":[0],
		"max":[1547]
	},
	{
		"bufferView":7,
		"type":"VEC3",
		"componentType":5126,
		"count":1548,
		"byteOffset":0,
		"min":[1.026018500328064,
		-0.02500000037252903,
		-2.37007737159729],
		"max":[2.5918242931365969,
		0.02500000037252903,
		-0.5083893537521362]
	},
	{
		"bufferView":7,
		"type":"VEC3",
		"componentType":5126,
		"count":1548,
		"byteOffset":12,
		"min":[-0.9728196859359741,
		-1.0,
		-0.8878969550132752],
		"max":[0.9728196859359741,
		1.0,
		0.9743717908859253]
	},
	{
		"bufferView":7,
		"type":"VEC2",
		"componentType":5126,
		"count":1548,
		"byteOffset":24,
		"min":[0.0,
		0.0],
		"max":[1.0,
		1.0]
	},
	{
		"bufferView":8,
		"type":"SCALAR",
		"componentType":5123,
		"count":1548,
		"byteOffset":0,
		"min":[0],
		"max":[1547]
	},
	{
		"bufferView":9,
		"type":"VEC3",
		"componentType":5126,
		"count":1548,
		"byteOffset":0,
		"min":[-1.7798874378204346,
		-0.02500000037252903,
		-2.6599857807159426],
		"max":[0.3702004551887512,
		0.02500000037252903,
		-1.6795072555541993]
	},
	{
		"bufferView":9,
		"type":"VEC3",
		"componentType":5126,
		"count":1548,
		"byteOffset":12,
		"min":[-0.7431387305259705,
		-1.0,
		-0.9999995231628418],
		"max":[0.9902700781822205,
		1.0,
		0.9999995231628418]
	},
	{
		"bufferView":9,
		"type":"VEC2",
		"componentType":5126,
		"count":1548,
		"byteOffset":24,
		"min":[0.0,
		0.0],
		"max":[1.0,
		1.0]
	},
	{
		"bufferView":10,
		"type":"SCALAR",
		"componentType":5123,
		"count":1548,
		"byteOffset":0,
		"min":[0],
		"max":[1547]
	},
	{
		"bufferView":11,
		"type":"VEC3",
		"componentType":5126,
		"count":1548,
		"byteOffset":0,
		"min":[-2.3036274909973146,
		-0.02500000037252903,
		-2.619588613510132],
		"max":[-0.3924448788166046,
		0.02500000037252903,
		-1.1299999952316285]
	},
	{
		"bufferView":11,
		"type":"VEC3",
		"componentType":5126,
		"count":1548,
		"byteOffset":12,
		"min":[-0.8626035451889038,
		-1.0,
		-0.9836033582687378],
		"max":[0.9848109483718872,
		1.0,
		0.9836033582687378]
	},
	{
		"bufferView":11,
		"type":"VEC2",
		"componentType":5126,
		"count":1548,
		"byteOffset":24,
		"min":[0.0,
		0.0],
		"max":[1.0,
		1.0]
	},
	{
		"bufferView":12,
		"type":"SCALAR",
		"componentType":5123,
		"count":1548,
		"byteOffset":0,
		"min":[0],
		"max":[1547]
	},
	{
		"bufferView":13,
		"type":"VEC3",
		"componentType":5126,
		"count":1548,
		"byteOffset":0,
		"min":[-1.907166838645935,
		-0.02500000037252903,
		-2.1599538326263429],
		"max":[0.22578148543834687,
		0.02500000037252903,
		-0.8121858239173889]
	},
	{
		"bufferView":13,
		"type":"VEC3",
		"componentType":5126,
		"count":1548,
		"byteOffset":12,
		"min":[-0.8785564303398132,
		-1.0,
		-0.999994158744812],
		"max":[0.9945246577262878,
		1.0,
		0.999994158744812]
	},
	{
		"bufferView":13,
		"type":"VEC2",
		"componentType":5126,
		"count":1548,
		"byteOffset":24,
		"min":[0.0,
		0.0],
		"max":[1.0,
		1.0]
	},
	{
		"bufferView":14,
		"type":"SCALAR",
		"componentType":5123,
		"count":1548,
		"byteOffset":0,
		"min":[0],
		"max":[1547]
	},
	{
		"bufferView":15,
		"type":"VEC3",
		"componentType":5126,
		"count":1548,
		"byteOffset":0,
		"min":[-0.22578148543834687,
		-0.02500000037252903,
		-2.159998655319214],
		"max":[1.1446256637573243,
		0.02500000037252903,
		-1.4671231508255005]
	},
	{
		"bufferView":15,
		"type":"VEC3",
		"componentType":5126,
		"count":1548,
		"byteOffset":12,
		"min":[-0.9945246577262878,
		-1.0,
		-0.9999998807907105],
		"max":[0.8480492234230042,
		1.0,
		0.9999998807907105]
	},
	{
		"bufferView":15,
		"type":"VEC2",
		"componentType":5126,
		"count":1548,
		"byteOffset":24,
		"min":[0.0,
		0.0],
		"max":[1.0,
		1.0]
	},
	{
		"bufferView":16,
		"type":"SCALAR",
		"componentType":5123,
		"count":1548,
		"byteOffset":0,
		"min":[0],
		"max":[1547]
	},
	{
		"bufferView":17,
		"type":"VEC3",
		"componentType":5126,
		"count":1548,
		"byteOffset":0,
		"min":[-1.2999204397201539,
		-0.02500000037252903,
		-2.159999370574951],
		"max":[0.22578148543834687,
		0.02500000037252903,
		-1.3816394805908204]
	},
	{
		"bufferView":17,
		"type":"VEC3",
		"componentType":5126,
		"count":1548,
		"byteOffset":12,
		"min":[-0.7986329793930054,
		-1.0,
		-0.9999994039535523],
		"max":[0.9945246577262878,
		1.0,
		0.9999994039535523]
	},
	{
		"bufferView":17,
		"type":"VEC2",
		"componentType":5126,
		"count":1548,
		"byteOffset":24,
		"min":[0.0,
		0.0],
		"max":[1.0,
		1.0]
	},
	{
		"bufferView":18,
		"type":"SCALAR",
		"componentType":5123,
		"count":1548,
		"byteOffset":0,
		"min":[0],
		"max":[1547]
	},
	{
		"bufferView":19,
		"type":"VEC3",
		"componentType":5126,
		"count":1548,
		"byteOffset":0,
		"min":[-1.395057201385498,
		-0.02500000037252903,
		-1.5799661874771119],
		"max":[0.16515497863292695,
		0.02500000037252903,
		-0.5070292949676514]
	},
	{
		"bufferView":19,
		"type":"VEC3",
		"componentType":5126,
		"count":1548,
		"byteOffset":12,
		"min":[-0.8785564303398132,
		-1.0,
		-0.999994158744812],
		"max":[0.9945246577262878,
		1.0,
		0.999994158744812]
	},
	{
		"bufferView":19,
		"type":"VEC2",
		"componentType":5126,
		"count":1548,
		"byteOffset":24,
		"min":[0.0,
		0.0],
		"max":[1.0,
		1.0]
	}],
	"bufferViews":[{
		"buffer":0,
		"byteOffset":0,
		"byteLength":3096,
		"target":34963
	},
	{
		"buffer":0,
		"byteOffset":3096,
		"byteLength":49536,
		"target":34962,
		"byteStride":32
	},
	{
		"buffer":1,
		"byteOffset":0,
		"byteLength":3096,
		"target":34963
	},
	{
		"buffer":1,
		"byteOffset":3096,
		"byteLength":49536,
		"target":34962,
		"byteStride":32
	},
	{
		"buffer":2,
		"byteOffset":0,
		"byteLength":3096,
		"target":34963
	},
	{
		"buffer":2,
		"byteOffset":3096,
		"byteLength":49536,
		"target":34962,
		"byteStride":32
	},
	{
		"buffer":3,
		"byteOffset":0,
		"byteLength":3096,
		"target":34963
	},
	{
		"buffer":3,
		"byteOffset":3096,
		"byteLength":49536,
		"target":34962,
		"byteStride":32
	},
	{
		"buffer":4,
		"byteOffset":0,
		"byteLength":3096,
		"target":34963
	},
	{
		"buffer":4,
		"byteOffset":3096,
		"byteLength":49536,
		"target":34962,
		"byteStride":32
	},
	{
		"buffer":5,
		"byteOffset":0,
		"byteLength":3096,
		"target":34963
	},
	{
		"buffer":5,
		"byteOffset":3096,
		"byteLength":49536,
		"target":34962,
		"byteStride":32
	},
	{
		"buffer":6,
		"byteOffset":0,
		"byteLength":3096,
		"target":34963
	},
	{
		"buffer":6,
		"byteOffset":3096,
		"byteLength":49536,
		"target":34962,
		"byteStride":32
	},
	{
		"buffer":7,
		"byteOffset":0,
		"byteLength":3096,
		"target":34963
	},
	{
		"buffer":7,
		"byteOffset":3096,
		"byteLength":49536,
		"target":34962,
		"byteStride":32
	},
	{
		"buffer":8,
		"byteOffset":0,
		"byteLength":3096,
		"target":34963
	},
	{
		"buffer":8,
		"byteOffset":3096,
		"byteLength":49536,
		"target":34962,
		"byteStride":32
	},
	{
		"buffer":9,
		"byteOffset":0,
		"byteLength":3096,
		"target":34963
	},
	{
		"buffer":9,
		"byteOffset":3096,
		"byteLength":49536,
		"target":34962,
		"byteStride":32
	}]
}