{
	"buffers":[{
		"uri":"data:application/octet-stream;base64,",
		"byteLength":154224
	},
	{
		"uri":"data:application/octet-stream;base64,",
		"byteLength":197880
	},
	{
		"uri":"data:application/octet-stream;base64,",
		"byteLength":251736
	},
	{
		"uri":"data:application/octet-stream;base64,",
		"byteLength":99552
	}],
	"asset":{
		"version":"2.0",
		"generator":"Maxon Cinema 4D 2025.3.1 (#200000219)"
	},
	"scenes":[{
		"nodes":[0,
		1,
		2,
		3]
	}],
	"nodes":[{
		"name":"文本",
		"mesh":0,
		"translation":[-0.5795543789863586,
		2.3793904781341554,
		1.9923043251037598],
		"rotation":[0.0,
		0.0,
		0.0,
		-1.0],
		"scale":[1.0,
		1.0,
		1.0]
	},
	{
		"name":"文本.1",
		"mesh":1,
		"translation":[0.9881218671798706,
		2.3793904781341554,
		1.9923043251037598],
		"rotation":[0.0,
		0.0,
		0.0,
		-1.0],
		"scale":[1.0,
		1.0,
		1.0]
	},
	{
		"name":"文本.2",
		"mesh":2,
		"translation":[2.0171685218811037,
		2.3793904781341554,
		1.626343846321106],
		"rotation":[0.0,
		-4.440892098500626e-16,
		0.0,
		-1.0],
		"scale":[1.0,
		1.0,
		1.0]
	},
	{
		"name":"文本.3",
		"mesh":3,
		"translation":[-1.8990615606307984,
		2.3793904781341554,
		2.6851840019226076],
		"rotation":[0.0,
		-4.440892098500626e-16,
		0.0,
		-1.0],
		"scale":[1.0,
		1.0,
		1.0]
	}],
	"meshes":[{
		"name":"文本",
		"primitives":[{
			"attributes":{
				"POSITION":1,
				"NORMAL":2,
				"TEXCOORD_0":3
			},
			"indices":0
		}]
	},
	{
		"name":"文本.1",
		"primitives":[{
			"attributes":{
				"POSITION":5,
				"NORMAL":6,
				"TEXCOORD_0":7
			},
			"indices":4
		}]
	},
	{
		"name":"文本.2",
		"primitives":[{
			"attributes":{
				"POSITION":9,
				"NORMAL":10,
				"TEXCOORD_0":11
			},
			"indices":8
		}]
	},
	{
		"name":"文本.3",
		"primitives":[{
			"attributes":{
				"POSITION":13,
				"NORMAL":14,
				"TEXCOORD_0":15
			},
			"indices":12
		}]
	}],
	"accessors":[{
		"bufferView":0,
		"type":"SCALAR",
		"componentType":5123,
		"count":4536,
		"byteOffset":0,
		"min":[0],
		"max":[4535]
	},
	{
		"bufferView":1,
		"type":"VEC3",
		"componentType":5126,
		"count":4536,
		"byteOffset":0,
		"min":[-0.6619960069656372,
		-0.1292225569486618,
		-0.23179657757282258],
		"max":[-0.24416014552116395,
		-0.03712255880236626,
		0.0010394345736131073]
	},
	{
		"bufferView":1,
		"type":"VEC3",
		"componentType":5126,
		"count":4536,
		"byteOffset":12,
		"min":[-0.9228993058204651,
		-1.0,
		-0.9229419231414795],
		"max":[0.9241568446159363,
		1.0,
		0.9229419231414795]
	},
	{
		"bufferView":1,
		"type":"VEC2",
		"componentType":5126,
		"count":4536,
		"byteOffset":24,
		"min":[0.0,
		0.0],
		"max":[1.0,
		1.0]
	},
	{
		"bufferView":2,
		"type":"SCALAR",
		"componentType":5123,
		"count":5820,
		"byteOffset":0,
		"min":[0],
		"max":[5819]
	},
	{
		"bufferView":3,
		"type":"VEC3",
		"componentType":5126,
		"count":5820,
		"byteOffset":0,
		"min":[-0.6801766753196716,
		-0.12937255203723908,
		0.04921692609786987],
		"max":[-0.3045991361141205,
		-0.03697255998849869,
		0.14224578440189362]
	},
	{
		"bufferView":3,
		"type":"VEC3",
		"componentType":5126,
		"count":5820,
		"byteOffset":12,
		"min":[-0.9899869561195374,
		-1.0,
		-0.989463210105896],
		"max":[0.988552451133728,
		1.0,
		0.989463210105896]
	},
	{
		"bufferView":3,
		"type":"VEC2",
		"componentType":5126,
		"count":5820,
		"byteOffset":24,
		"min":[0.0,
		0.0],
		"max":[1.0,
		1.0]
	},
	{
		"bufferView":4,
		"type":"SCALAR",
		"componentType":5123,
		"count":7404,
		"byteOffset":0,
		"min":[0],
		"max":[7403]
	},
	{
		"bufferView":5,
		"type":"VEC3",
		"componentType":5126,
		"count":7404,
		"byteOffset":0,
		"min":[-0.3259889781475067,
		-0.12904055416584016,
		0.04771193116903305],
		"max":[0.0340464748442173,
		-0.03784055635333061,
		0.41076356172561648]
	},
	{
		"bufferView":5,
		"type":"VEC3",
		"componentType":5126,
		"count":7404,
		"byteOffset":12,
		"min":[-0.7716478109359741,
		-1.0,
		-0.7740296721458435],
		"max":[0.7716478109359741,
		1.0,
		0.7671264410018921]
	},
	{
		"bufferView":5,
		"type":"VEC2",
		"componentType":5126,
		"count":7404,
		"byteOffset":24,
		"min":[0.0,
		0.0],
		"max":[1.0,
		1.0]
	},
	{
		"bufferView":6,
		"type":"SCALAR",
		"componentType":5123,
		"count":2928,
		"byteOffset":0,
		"min":[0],
		"max":[2927]
	},
	{
		"bufferView":7,
		"type":"VEC3",
		"componentType":5126,
		"count":2928,
		"byteOffset":0,
		"min":[-0.6619141101837158,
		-0.1289905607700348,
		-3.659229040145874],
		"max":[-0.5603641867637634,
		-0.03789055719971657,
		-3.36189866065979]
	},
	{
		"bufferView":7,
		"type":"VEC3",
		"componentType":5126,
		"count":2928,
		"byteOffset":12,
		"min":[-0.9661945104598999,
		-1.0,
		-0.9642986059188843],
		"max":[0.9661945104598999,
		1.0,
		0.9671279788017273]
	},
	{
		"bufferView":7,
		"type":"VEC2",
		"componentType":5126,
		"count":2928,
		"byteOffset":24,
		"min":[0.0,
		0.0],
		"max":[1.0,
		1.0]
	}],
	"bufferViews":[{
		"buffer":0,
		"byteOffset":0,
		"byteLength":9072,
		"target":34963
	},
	{
		"buffer":0,
		"byteOffset":9072,
		"byteLength":145152,
		"target":34962,
		"byteStride":32
	},
	{
		"buffer":1,
		"byteOffset":0,
		"byteLength":11640,
		"target":34963
	},
	{
		"buffer":1,
		"byteOffset":11640,
		"byteLength":186240,
		"target":34962,
		"byteStride":32
	},
	{
		"buffer":2,
		"byteOffset":0,
		"byteLength":14808,
		"target":34963
	},
	{
		"buffer":2,
		"byteOffset":14808,
		"byteLength":236928,
		"target":34962,
		"byteStride":32
	},
	{
		"buffer":3,
		"byteOffset":0,
		"byteLength":5856,
		"target":34963
	},
	{
		"buffer":3,
		"byteOffset":5856,
		"byteLength":93696,
		"target":34962,
		"byteStride":32
	}]
}